<svg width="56" height="56" viewBox="0 0 56 56" fill="none" xmlns="http://www.w3.org/2000/svg">
<circle cx="28" cy="28" r="28" fill="#0077FF"/>
<path fill-rule="evenodd" clip-rule="evenodd" d="M21.1118 19.3702C23.2956 18.4656 25.6363 18 28.0001 18C30.3639 18 32.7045 18.4656 34.8884 19.3702C36.2021 19.9144 37.4437 20.611 38.5883 21.4436C39.0195 21.7572 39.1288 22.3539 38.8367 22.8L33.3434 31.1915C33.1866 31.4309 32.9349 31.5917 32.6518 31.6332C32.3687 31.6747 32.0814 31.593 31.8625 31.4087C30.8184 30.5293 29.4723 30.0003 28.0001 30.0003C26.5279 30.0003 25.1818 30.5293 24.1377 31.4087C23.9188 31.593 23.6315 31.6747 23.3484 31.6332C23.0653 31.5917 22.8135 31.4309 22.6568 31.1915L17.1634 22.8C16.8714 22.3539 16.9807 21.7572 17.4119 21.4436C18.5565 20.611 19.798 19.9144 21.1118 19.3702ZM28 37.0005C29.1046 37.0005 30 36.1051 30 35.0005C30 33.8959 29.1046 33.0005 28 33.0005C26.8954 33.0005 26 33.8959 26 35.0005C26 36.1051 26.8954 37.0005 28 37.0005Z" fill="white"/>
</svg>
